<svg width="226" height="226" viewBox="0 0 226 226" fill="none" xmlns="http://www.w3.org/2000/svg" xmlns:xlink="http://www.w3.org/1999/xlink">
<g filter="url(#filter0_d_29_2)">
<ellipse cx="110.136" cy="112.038" rx="98" ry="100.5" fill="white"/>
<path d="M110.136 14.5384C162.533 14.5384 205.136 58.1189 205.136 112.038C205.136 165.958 162.533 209.538 110.136 209.538C57.7402 209.538 15.1365 165.958 15.1365 112.038C15.1365 58.1189 57.7402 14.5384 110.136 14.5384Z" stroke="#7A3D89" stroke-width="6"/>
</g>
<circle cx="110.136" cy="112.538" r="63.5" stroke="#7A3D89" stroke-width="3" stroke-dasharray="12 12"/>
<g id="Repeat group 3_inner" data-figma-trr="r15u12.6-0f">
<rect x="101.898" y="23.8997" width="16" height="13" fill="#F2E7ED"/>
</g>
<use xlink:href="#Repeat%20group%203_inner" transform="translate(55.1775 -34.9906) rotate(24)"/>
<use xlink:href="#Repeat%20group%203_inner" transform="translate(119.817 -44.5134) rotate(48)"/>
<use xlink:href="#Repeat%20group%203_inner" transform="translate(182.741 -26.9218) rotate(72)"/>
<use xlink:href="#Repeat%20group%203_inner" transform="translate(233.07 14.7425) rotate(96)"/>
<use xlink:href="#Repeat%20group%203_inner" transform="translate(262.101 73.2753) rotate(120)"/>
<use xlink:href="#Repeat%20group%203_inner" transform="translate(264.815 138.556) rotate(144)"/>
<use xlink:href="#Repeat%20group%203_inner" transform="translate(240.742 199.296) rotate(168)"/>
<use xlink:href="#Repeat%20group%203_inner" transform="translate(194.046 244.994) rotate(-168)"/>
<use xlink:href="#Repeat%20group%203_inner" transform="translate(132.799 267.748) rotate(-144)"/>
<use xlink:href="#Repeat%20group%203_inner" transform="translate(67.5922 263.624) rotate(-120)"/>
<use xlink:href="#Repeat%20group%203_inner" transform="translate(9.7007 233.334) rotate(-96)"/>
<use xlink:href="#Repeat%20group%203_inner" transform="translate(-30.8659 182.116) rotate(-72)"/>
<use xlink:href="#Repeat%20group%203_inner" transform="translate(-47.0931 118.826) rotate(-48)"/>
<use xlink:href="#Repeat%20group%203_inner" transform="translate(-36.1752 54.4082) rotate(-24)"/>
<g id="Repeat group 4_inner" data-figma-trr="r15u12.6-0f">
<rect x="125.724" y="31.5571" width="15.0473" height="12.226" transform="rotate(18.5896 125.724 31.5571)" fill="#F2E7ED"/>
</g>
<use xlink:href="#Repeat%20group%204_inner" transform="translate(55.0561 -33.5093) rotate(24)"/>
<use xlink:href="#Repeat%20group%204_inner" transform="translate(118.982 -41.7283) rotate(48)"/>
<use xlink:href="#Repeat%20group%204_inner" transform="translate(180.724 -23.2358) rotate(72)"/>
<use xlink:href="#Repeat%20group%204_inner" transform="translate(229.606 18.7707) rotate(96)"/>
<use xlink:href="#Repeat%20group%204_inner" transform="translate(257.177 77.0279) rotate(120)"/>
<use xlink:href="#Repeat%20group%204_inner" transform="translate(258.669 141.463) rotate(144)"/>
<use xlink:href="#Repeat%20group%204_inner" transform="translate(233.824 200.933) rotate(168)"/>
<use xlink:href="#Repeat%20group%204_inner" transform="translate(186.938 245.157) rotate(-168)"/>
<use xlink:href="#Repeat%20group%204_inner" transform="translate(126.118 266.487) rotate(-144)"/>
<use xlink:href="#Repeat%20group%204_inner" transform="translate(61.8805 261.236) rotate(-120)"/>
<use xlink:href="#Repeat%20group%204_inner" transform="translate(5.33248 230.311) rotate(-96)"/>
<use xlink:href="#Repeat%20group%204_inner" transform="translate(-33.7482 179.059) rotate(-72)"/>
<use xlink:href="#Repeat%20group%204_inner" transform="translate(-48.6042 116.342) rotate(-48)"/>
<use xlink:href="#Repeat%20group%204_inner" transform="translate(-36.6668 53.0056) rotate(-24)"/>
<g id="Repeat group 5_inner" data-figma-trr="r15u12.6-0f">
<rect x="177.637" y="62.9521" width="14.7396" height="11.976" transform="rotate(57.5366 177.637 62.9521)" fill="#F2E7ED"/>
</g>
<use xlink:href="#Repeat%20group%205_inner" transform="translate(55.6725 -36.1541) rotate(24)"/>
<use xlink:href="#Repeat%20group%205_inner" transform="translate(121.237 -46.5385) rotate(48)"/>
<use xlink:href="#Repeat%20group%205_inner" transform="translate(185.357 -29.3576) rotate(72)"/>
<use xlink:href="#Repeat%20group%205_inner" transform="translate(236.945 12.4179) rotate(96)"/>
<use xlink:href="#Repeat%20group%205_inner" transform="translate(267.082 71.5645) rotate(120)"/>
<use xlink:href="#Repeat%20group%205_inner" transform="translate(270.556 137.855) rotate(144)"/>
<use xlink:href="#Repeat%20group%205_inner" transform="translate(246.767 199.828) rotate(168)"/>
<use xlink:href="#Repeat%20group%205_inner" transform="translate(199.828 246.767) rotate(-168)"/>
<use xlink:href="#Repeat%20group%205_inner" transform="translate(137.855 270.556) rotate(-144)"/>
<use xlink:href="#Repeat%20group%205_inner" transform="translate(71.5643 267.082) rotate(-120)"/>
<use xlink:href="#Repeat%20group%205_inner" transform="translate(12.4177 236.945) rotate(-96)"/>
<use xlink:href="#Repeat%20group%205_inner" transform="translate(-29.3577 185.357) rotate(-72)"/>
<use xlink:href="#Repeat%20group%205_inner" transform="translate(-46.5386 121.237) rotate(-48)"/>
<use xlink:href="#Repeat%20group%205_inner" transform="translate(-36.1541 55.6724) rotate(-24)"/>
<path d="M47.8842 77.7823L47.0014 79.5515L40.5375 72.9591L41.5992 70.8314L50.7516 72.0361L49.8687 73.8053L42.8681 72.7552L42.8376 72.8162L47.8842 77.7823ZM44.7596 76.3612L46.8449 72.1822L48.1337 72.8253L46.0484 77.0043L44.7596 76.3612Z" fill="#7A3D89"/>
<path d="M53.9911 67.1653L46.8836 62.1009L47.9543 60.5982L53.8229 64.7798L55.9941 61.7327L57.233 62.6155L53.9911 67.1653Z" fill="#7A3D89"/>
<path d="M58.7935 61.0116L52.3897 55.0823L56.3155 50.8423L57.4318 51.8758L54.7596 54.762L56.2855 56.1748L58.6971 53.5701L59.8134 54.6037L57.4018 57.2084L60.0471 59.6576L58.7935 61.0116Z" fill="#7A3D89"/>
<path d="M66.9053 53.2025L65.3526 54.4267L62.3153 45.7079L64.1826 44.2357L71.9484 49.2266L70.3957 50.4508L64.5105 46.5168L64.4569 46.559L66.9053 53.2025ZM64.6845 50.5851L68.3522 47.6936L69.2439 48.8247L65.5762 51.7162L64.6845 50.5851Z" fill="#7A3D89"/>
<path d="M75.2444 47.2786L71.1366 39.5785L74.2197 37.9338C74.7862 37.6316 75.3035 37.4635 75.7715 37.4296C76.2396 37.3956 76.6485 37.4769 76.9981 37.6736C77.3464 37.8677 77.6235 38.1578 77.8294 38.5438C77.9898 38.8446 78.0708 39.1411 78.0721 39.4334C78.0722 39.7232 78.0057 39.9969 77.8727 40.2546C77.7408 40.5085 77.5569 40.737 77.3208 40.9403L77.3609 41.0155C77.6608 40.8716 77.9794 40.8079 78.3167 40.8244C78.6564 40.8395 78.98 40.9422 79.2875 41.1323C79.5937 41.32 79.8477 41.603 80.0497 41.9815C80.2676 42.3901 80.3606 42.809 80.3288 43.2381C80.2981 43.6634 80.1354 44.0738 79.8408 44.4692C79.5463 44.8646 79.1107 45.2161 78.5342 45.5236L75.2444 47.2786ZM76.1623 45.0792L77.4896 44.3712C77.9432 44.1291 78.228 43.8661 78.3438 43.5822C78.4582 43.2958 78.4379 43.0072 78.2828 42.7164C78.1691 42.5034 78.0174 42.3428 77.8278 42.2347C77.6381 42.1266 77.4232 42.077 77.1833 42.0858C76.9458 42.0934 76.6967 42.1667 76.436 42.3057L75.0712 43.0338L76.1623 45.0792ZM74.4836 41.9322L75.6905 41.2884C75.9135 41.1694 76.0908 41.0249 76.2223 40.8549C76.355 40.6811 76.4327 40.4948 76.4554 40.2959C76.4806 40.0957 76.4391 39.8941 76.3308 39.691C76.1823 39.4128 75.9637 39.2413 75.6747 39.1765C75.3883 39.1103 75.0646 39.1735 74.7036 39.3661L73.4667 40.026L74.4836 41.9322Z" fill="#7A3D89"/>
<path d="M86.726 41.8066L84.102 33.4832L89.7105 31.715L90.168 33.1659L86.3192 34.3793L86.9444 36.3626L90.5047 35.2402L90.9621 36.6911L87.4019 37.8135L88.0284 39.8009L91.8934 38.5824L92.3508 40.0333L86.726 41.8066Z" fill="#7A3D89"/>
<path d="M97.7067 31.4979L97.4914 29.9919L104.587 28.9772L104.802 30.4832L102.157 30.8615L103.177 37.9949L101.372 38.2531L100.352 31.1197L97.7067 31.4979Z" fill="#7A3D89"/>
<path d="M123.172 32.4823C123.19 32.1373 123.085 31.8514 122.857 31.6248C122.63 31.3982 122.297 31.2519 121.859 31.1861C121.561 31.1413 121.303 31.1457 121.085 31.1991C120.868 31.2498 120.694 31.3399 120.562 31.4695C120.434 31.5996 120.355 31.7573 120.327 31.9427C120.299 32.0964 120.311 32.2361 120.364 32.3619C120.419 32.488 120.504 32.6027 120.618 32.706C120.732 32.8065 120.867 32.9001 121.024 32.9868C121.181 33.0707 121.35 33.1478 121.532 33.2183L122.279 33.5202C122.643 33.6611 122.972 33.8254 123.265 34.0131C123.559 34.2008 123.805 34.4146 124.005 34.6543C124.205 34.894 124.347 35.1624 124.431 35.4595C124.519 35.7571 124.537 36.0858 124.486 36.4459C124.403 36.9736 124.2 37.4113 123.875 37.7589C123.553 38.1041 123.126 38.3458 122.594 38.4842C122.065 38.6202 121.449 38.6354 120.747 38.5299C120.05 38.4252 119.459 38.2272 118.974 37.9361C118.492 37.6453 118.138 37.2689 117.912 36.8068C117.688 36.3423 117.616 35.7986 117.696 35.1756L119.461 35.441C119.437 35.7333 119.484 35.9873 119.601 36.2031C119.721 36.4165 119.898 36.591 120.13 36.7265C120.366 36.8595 120.641 36.9497 120.955 36.997C121.264 37.0434 121.54 37.0388 121.781 36.9831C122.024 36.9278 122.222 36.8296 122.372 36.6885C122.523 36.5473 122.613 36.3728 122.645 36.1649C122.674 35.9711 122.641 35.7995 122.545 35.6501C122.453 35.5012 122.304 35.3639 122.099 35.2383C121.896 35.1131 121.644 34.9889 121.34 34.8658L120.436 34.4886C119.735 34.2023 119.202 33.8392 118.837 33.3994C118.472 32.9596 118.339 32.4211 118.438 31.7838C118.514 31.2608 118.721 30.8252 119.061 30.4769C119.403 30.1291 119.838 29.8827 120.366 29.7379C120.893 29.593 121.471 29.5679 122.101 29.6625C122.741 29.7587 123.284 29.9523 123.728 30.2432C124.176 30.5345 124.504 30.8955 124.712 31.3261C124.92 31.7567 124.99 32.2297 124.921 32.745L123.172 32.4823Z" fill="#7A3D89"/>
<path d="M130.046 40.3849L132.905 32.1394L138.461 34.0661L137.963 35.5035L134.15 34.1813L133.469 36.146L136.996 37.3691L136.497 38.8064L132.97 37.5834L132.288 39.5521L136.117 40.8799L135.618 42.3173L130.046 40.3849Z" fill="#7A3D89"/>
<path d="M141.864 45.1542L146.026 37.4835L149.052 39.1256C149.632 39.44 150.07 39.8119 150.367 40.2413C150.668 40.6696 150.823 41.1306 150.833 41.6242C150.847 42.1166 150.717 42.6162 150.442 43.1231C150.165 43.6325 149.818 44.0111 149.399 44.2589C148.981 44.5043 148.511 44.6112 147.989 44.5797C147.468 44.5495 146.914 44.3746 146.324 44.0548L144.298 42.9553L145.005 41.6519L146.769 42.6091C147.079 42.7771 147.359 42.8742 147.61 42.9004C147.861 42.9266 148.082 42.8819 148.274 42.7663C148.469 42.6521 148.635 42.4689 148.771 42.2167C148.91 41.962 148.975 41.7195 148.967 41.4891C148.962 41.2602 148.881 41.0445 148.722 40.8421C148.568 40.6386 148.334 40.4522 148.022 40.2828L146.928 39.6894L143.485 46.0343L141.864 45.1542ZM147.9 43.9112L147.913 48.4365L146.122 47.465L146.151 42.9621L147.9 43.9112Z" fill="#7A3D89"/>
<path d="M156.799 44.1985L154.443 50.7456L154.507 50.7948L160.216 46.8148L161.84 48.0583L154.146 53.159L152.258 51.7135L155.171 42.9525L156.799 44.1985Z" fill="#7A3D89"/>
<path d="M166.746 52.9961L160.514 59.1048L159.222 57.787L165.455 51.6783L166.746 52.9961Z" fill="#7A3D89"/>
<path d="M173.58 66.409L172.475 64.9045C172.649 64.7341 172.781 64.5511 172.87 64.3554C172.961 64.158 173.012 63.9534 173.022 63.7415C173.032 63.5297 173.002 63.3158 172.931 63.0997C172.863 62.8859 172.754 62.6782 172.606 62.4767C172.339 62.1126 172.016 61.8619 171.636 61.7245C171.259 61.5854 170.844 61.5675 170.392 61.6708C169.941 61.7725 169.472 62.0024 168.984 62.3605C168.483 62.7287 168.116 63.1125 167.884 63.5118C167.654 63.9135 167.551 64.3133 167.575 64.7113C167.6 65.1093 167.742 65.4858 168.003 65.8407C168.149 66.0399 168.311 66.205 168.488 66.3358C168.666 66.4688 168.855 66.5648 169.053 66.6236C169.254 66.6808 169.459 66.6991 169.67 66.6785C169.882 66.6602 170.094 66.5993 170.307 66.4958L171.405 68.0054C171.054 68.2035 170.671 68.3348 170.257 68.3994C169.846 68.4645 169.427 68.4531 169 68.3652C168.576 68.2779 168.164 68.105 167.762 67.8463C167.365 67.5883 167.001 67.2337 166.669 66.7826C166.209 66.1551 165.939 65.4898 165.86 64.7867C165.782 64.0859 165.907 63.3948 166.235 62.7134C166.565 62.0344 167.112 61.4141 167.877 60.8525C168.644 60.2893 169.403 59.9544 170.153 59.8479C170.903 59.7413 171.6 59.8319 172.245 60.1198C172.892 60.406 173.443 60.8582 173.897 61.4765C174.196 61.8841 174.416 62.304 174.557 62.7361C174.7 63.1706 174.761 63.6036 174.739 64.0352C174.72 64.4652 174.615 64.8809 174.423 65.2823C174.233 65.6861 173.952 66.0617 173.58 66.409Z" fill="#7A3D89"/>
<path d="M170.975 73.3084L178.812 69.4673L181.4 74.7478L180.034 75.4174L178.258 71.7938L176.39 72.709L178.033 76.061L176.667 76.7305L175.024 73.3786L173.153 74.2957L174.937 77.9347L173.571 78.6042L170.975 73.3084Z" fill="#7A3D89"/>
<path d="M32 106L34.9187 114.983H44.3637L36.7225 120.535L39.6412 129.517L32 123.966L24.3588 129.517L27.2775 120.535L19.6363 114.983H29.0813L32 106Z" fill="#7A3D89"/>
<path d="M42 140L44.9187 148.983H54.3637L46.7225 154.535L49.6412 163.517L42 157.966L34.3588 163.517L37.2775 154.535L29.6363 148.983H39.0813L42 140Z" fill="#7A3D89"/>
<path d="M67 164L69.9187 172.983H79.3637L71.7225 178.535L74.6412 187.517L67 181.966L59.3588 187.517L62.2775 178.535L54.6363 172.983H64.0813L67 164Z" fill="#7A3D89"/>
<path d="M112 179L114.919 187.983H124.364L116.723 193.535L119.641 202.517L112 196.966L104.359 202.517L107.277 193.535L99.6363 187.983H109.081L112 179Z" fill="#7A3D89"/>
<path d="M150 167L152.919 175.983H162.364L154.723 181.535L157.641 190.517L150 184.966L142.359 190.517L145.277 181.535L137.636 175.983H147.081L150 167Z" fill="#7A3D89"/>
<path d="M177 141L179.919 149.983H189.364L181.723 155.535L184.641 164.517L177 158.966L169.359 164.517L172.277 155.535L164.636 149.983H174.081L177 141Z" fill="#7A3D89"/>
<path d="M188 106L190.919 114.983H200.364L192.723 120.535L195.641 129.517L188 123.966L180.359 129.517L183.277 120.535L175.636 114.983H185.081L188 106Z" fill="#7A3D89"/>
<path d="M63.3572 82.1818H64.8743L66.4766 86.0909H66.5447L68.147 82.1818H69.6641V88H68.4709V84.2131H68.4226L66.9169 87.9716H66.1044L64.5987 84.1989H64.5504V88H63.3572V82.1818ZM71.6804 88H70.3622L72.3707 82.1818H73.956L75.9616 88H74.6435L73.1861 83.5114H73.1406L71.6804 88ZM71.598 85.7131H74.7116V86.6733H71.598V85.7131ZM76.6619 88V82.1818H78.9574C79.3968 82.1818 79.7718 82.2604 80.0824 82.4176C80.3949 82.5729 80.6326 82.7936 80.7955 83.0795C80.9602 83.3636 81.0426 83.6979 81.0426 84.0824C81.0426 84.4687 80.9593 84.8011 80.7926 85.0795C80.6259 85.3561 80.3845 85.5682 80.0682 85.7159C79.7538 85.8636 79.3731 85.9375 78.9261 85.9375H77.3892V84.9489H78.7273C78.9621 84.9489 79.1572 84.9167 79.3125 84.8523C79.4678 84.7879 79.5833 84.6913 79.6591 84.5625C79.7367 84.4337 79.7756 84.2737 79.7756 84.0824C79.7756 83.8892 79.7367 83.7263 79.6591 83.5938C79.5833 83.4612 79.4669 83.3608 79.3097 83.2926C79.1544 83.2225 78.9583 83.1875 78.7216 83.1875H77.892V88H76.6619ZM79.804 85.3523L81.25 88H79.892L78.4773 85.3523H79.804ZM82.9148 88H81.5966L83.6051 82.1818H85.1903L87.196 88H85.8778L84.4205 83.5114H84.375L82.9148 88ZM82.8324 85.7131H85.946V86.6733H82.8324V85.7131ZM89.7479 88V82.1818H92.0433C92.4827 82.1818 92.8577 82.2604 93.1683 82.4176C93.4808 82.5729 93.7185 82.7936 93.8814 83.0795C94.0462 83.3636 94.1286 83.6979 94.1286 84.0824C94.1286 84.4687 94.0452 84.8011 93.8786 85.0795C93.7119 85.3561 93.4704 85.5682 93.1541 85.7159C92.8397 85.8636 92.459 85.9375 92.0121 85.9375H90.4751V84.9489H91.8132C92.0481 84.9489 92.2431 84.9167 92.3984 84.8523C92.5537 84.7879 92.6693 84.6913 92.745 84.5625C92.8227 84.4337 92.8615 84.2737 92.8615 84.0824C92.8615 83.8892 92.8227 83.7263 92.745 83.5938C92.6693 83.4612 92.5528 83.3608 92.3956 83.2926C92.2403 83.2225 92.0443 83.1875 91.8075 83.1875H90.978V88H89.7479ZM92.8899 85.3523L94.3359 88H92.978L91.5632 85.3523H92.8899ZM96.0007 88H94.6825L96.6911 82.1818H98.2763L100.282 88H98.9638L97.5064 83.5114H97.4609L96.0007 88ZM95.9183 85.7131H99.032V86.6733H95.9183V85.7131ZM105.849 82.1818V88H104.786L102.255 84.3381H102.212V88H100.982V82.1818H102.062L104.573 85.8409H104.624V82.1818H105.849ZM108.095 82.1818V88H106.865V82.1818H108.095ZM111.962 88H110.643L112.652 82.1818H114.237L116.243 88H114.925L113.467 83.5114H113.422L111.962 88ZM111.879 85.7131H114.993V86.6733H111.879V85.7131ZM116.943 88V82.1818H119.239C119.68 82.1818 120.056 82.2661 120.366 82.4347C120.677 82.6013 120.914 82.8333 121.077 83.1307C121.241 83.4261 121.324 83.767 121.324 84.1534C121.324 84.5398 121.241 84.8807 121.074 85.1761C120.907 85.4716 120.666 85.7017 120.349 85.8665C120.035 86.0312 119.654 86.1136 119.207 86.1136H117.744V85.1278H119.009C119.245 85.1278 119.44 85.0871 119.594 85.0057C119.749 84.9223 119.865 84.8078 119.94 84.6619C120.018 84.5142 120.057 84.3447 120.057 84.1534C120.057 83.9602 120.018 83.7917 119.94 83.6477C119.865 83.5019 119.749 83.3892 119.594 83.3097C119.438 83.2282 119.241 83.1875 119.003 83.1875H118.173V88H116.943ZM122.454 88H121.136L123.144 82.1818H124.729L126.735 88H125.417L123.96 83.5114H123.914L122.454 88ZM122.371 85.7131H125.485V86.6733H122.371V85.7131ZM127.435 88V82.1818H129.731C130.17 82.1818 130.545 82.2604 130.856 82.4176C131.168 82.5729 131.406 82.7936 131.569 83.0795C131.734 83.3636 131.816 83.6979 131.816 84.0824C131.816 84.4687 131.733 84.8011 131.566 85.0795C131.399 85.3561 131.158 85.5682 130.842 85.7159C130.527 85.8636 130.147 85.9375 129.7 85.9375H128.163V84.9489H129.501C129.736 84.9489 129.931 84.9167 130.086 84.8523C130.241 84.7879 130.357 84.6913 130.433 84.5625C130.51 84.4337 130.549 84.2737 130.549 84.0824C130.549 83.8892 130.51 83.7263 130.433 83.5938C130.357 83.4612 130.24 83.3608 130.083 83.2926C129.928 83.2225 129.732 83.1875 129.495 83.1875H128.665V88H127.435ZM130.577 85.3523L132.023 88H130.665L129.251 85.3523H130.577ZM132.464 83.196V82.1818H137.242V83.196H135.461V88H134.245V83.196H132.464ZM138.029 82.1818H139.546L141.148 86.0909H141.217L142.819 82.1818H144.336V88H143.143V84.2131H143.094L141.589 87.9716H140.776L139.271 84.1989H139.222V88H138.029V82.1818ZM145.349 88V82.1818H149.27V83.196H146.58V84.5824H149.068V85.5966H146.58V86.9858H149.281V88H145.349ZM155.114 82.1818V88H154.052L151.521 84.3381H151.478V88H150.248V82.1818H151.327L153.839 85.8409H153.89V82.1818H155.114ZM155.909 83.196V82.1818H160.688V83.196H158.906V88H157.69V83.196H155.909ZM66.8523 95.0909C66.8523 95.7254 66.732 96.2652 66.4915 96.7102C66.2528 97.1553 65.9271 97.4953 65.5142 97.7301C65.1032 97.9631 64.6411 98.0795 64.1278 98.0795C63.6108 98.0795 63.1468 97.9621 62.7358 97.7273C62.3248 97.4924 62 97.1525 61.7614 96.7074C61.5227 96.2623 61.4034 95.7235 61.4034 95.0909C61.4034 94.4564 61.5227 93.9167 61.7614 93.4716C62 93.0265 62.3248 92.6875 62.7358 92.4545C63.1468 92.2197 63.6108 92.1023 64.1278 92.1023C64.6411 92.1023 65.1032 92.2197 65.5142 92.4545C65.9271 92.6875 66.2528 93.0265 66.4915 93.4716C66.732 93.9167 66.8523 94.4564 66.8523 95.0909ZM65.6051 95.0909C65.6051 94.6799 65.5436 94.3333 65.4205 94.0511C65.2992 93.7689 65.1278 93.5549 64.9062 93.4091C64.6847 93.2633 64.4252 93.1903 64.1278 93.1903C63.8305 93.1903 63.571 93.2633 63.3494 93.4091C63.1278 93.5549 62.9555 93.7689 62.8324 94.0511C62.7112 94.3333 62.6506 94.6799 62.6506 95.0909C62.6506 95.5019 62.7112 95.8485 62.8324 96.1307C62.9555 96.4129 63.1278 96.6269 63.3494 96.7727C63.571 96.9186 63.8305 96.9915 64.1278 96.9915C64.4252 96.9915 64.6847 96.9186 64.9062 96.7727C65.1278 96.6269 65.2992 96.4129 65.4205 96.1307C65.5436 95.8485 65.6051 95.5019 65.6051 95.0909ZM67.7635 98V92.1818H71.6158V93.196H68.9936V94.5824H71.3601V95.5966H68.9936V98H67.7635ZM72.4432 98V92.1818H76.2955V93.196H73.6733V94.5824H76.0398V95.5966H73.6733V98H72.4432ZM78.353 92.1818V98H77.1229V92.1818H78.353ZM84.4986 94.2188H83.2543C83.2315 94.0578 83.1851 93.9148 83.1151 93.7898C83.045 93.6629 82.955 93.5549 82.8452 93.4659C82.7353 93.3769 82.6084 93.3087 82.4645 93.2614C82.3224 93.214 82.1681 93.1903 82.0014 93.1903C81.7003 93.1903 81.438 93.2652 81.2145 93.4148C80.991 93.5625 80.8177 93.7784 80.6946 94.0625C80.5715 94.3447 80.5099 94.6875 80.5099 95.0909C80.5099 95.5057 80.5715 95.8542 80.6946 96.1364C80.8196 96.4186 80.9938 96.6316 81.2173 96.7756C81.4408 96.9195 81.6993 96.9915 81.9929 96.9915C82.1577 96.9915 82.3101 96.9697 82.4503 96.9261C82.5923 96.8826 82.7183 96.8191 82.8281 96.7358C82.938 96.6506 83.0289 96.5473 83.1009 96.4261C83.1747 96.3049 83.2259 96.1667 83.2543 96.0114L84.4986 96.017C84.4664 96.2841 84.3859 96.5417 84.2571 96.7898C84.1302 97.036 83.9588 97.2566 83.7429 97.4517C83.5289 97.6449 83.2732 97.7983 82.9759 97.9119C82.6804 98.0237 82.3461 98.0795 81.973 98.0795C81.4541 98.0795 80.9901 97.9621 80.581 97.7273C80.1738 97.4924 79.8518 97.1525 79.6151 96.7074C79.3802 96.2623 79.2628 95.7235 79.2628 95.0909C79.2628 94.4564 79.3821 93.9167 79.6207 93.4716C79.8594 93.0265 80.1832 92.6875 80.5923 92.4545C81.0014 92.2197 81.4616 92.1023 81.973 92.1023C82.3101 92.1023 82.6226 92.1496 82.9105 92.2443C83.2003 92.339 83.4569 92.4773 83.6804 92.6591C83.9039 92.839 84.0857 93.0597 84.2259 93.321C84.3679 93.5824 84.4588 93.8816 84.4986 94.2188ZM85.3807 98V92.1818H89.3011V93.196H86.6108V94.5824H89.0994V95.5966H86.6108V96.9858H89.3125V98H85.3807ZM94.6278 92.1818V98H93.3977V93.3494H93.3636L92.0312 94.1847V93.0938L93.4716 92.1818H94.6278ZM98.1811 98.0795C97.7436 98.0795 97.3544 98.0085 97.0135 97.8665C96.6745 97.7225 96.4084 97.5265 96.2152 97.2784C96.022 97.0303 95.9254 96.7491 95.9254 96.4347C95.9254 96.1922 95.9804 95.9697 96.0902 95.767C96.2019 95.5625 96.3535 95.393 96.5447 95.2585C96.736 95.1222 96.95 95.035 97.1868 94.9972V94.9574C96.8762 94.8949 96.6243 94.7443 96.4311 94.5057C96.2379 94.2652 96.1413 93.9858 96.1413 93.6676C96.1413 93.3665 96.2294 93.0985 96.4055 92.8636C96.5817 92.6269 96.8232 92.4413 97.13 92.3068C97.4387 92.1705 97.7891 92.1023 98.1811 92.1023C98.5732 92.1023 98.9226 92.1705 99.2294 92.3068C99.5381 92.4432 99.7805 92.6297 99.9567 92.8665C100.133 93.1013 100.222 93.3684 100.224 93.6676C100.222 93.9877 100.123 94.267 99.9283 94.5057C99.7332 94.7443 99.4832 94.8949 99.1783 94.9574V94.9972C99.4112 95.035 99.6224 95.1222 99.8118 95.2585C100.003 95.393 100.155 95.5625 100.266 95.767C100.38 95.9697 100.438 96.1922 100.44 96.4347C100.438 96.7491 100.34 97.0303 100.147 97.2784C99.9538 97.5265 99.6868 97.7225 99.3459 97.8665C99.0069 98.0085 98.6186 98.0795 98.1811 98.0795ZM98.1811 97.1761C98.3762 97.1761 98.5466 97.1411 98.6925 97.071C98.8383 96.9991 98.9519 96.9006 99.0334 96.7756C99.1167 96.6487 99.1584 96.5028 99.1584 96.3381C99.1584 96.1695 99.1158 96.0208 99.0305 95.892C98.9453 95.7614 98.8298 95.6591 98.6839 95.5852C98.5381 95.5095 98.3705 95.4716 98.1811 95.4716C97.9936 95.4716 97.826 95.5095 97.6783 95.5852C97.5305 95.6591 97.4141 95.7614 97.3288 95.892C97.2455 96.0208 97.2038 96.1695 97.2038 96.3381C97.2038 96.5028 97.2446 96.6487 97.326 96.7756C97.4074 96.9006 97.522 96.9991 97.6697 97.071C97.8175 97.1411 97.9879 97.1761 98.1811 97.1761ZM98.1811 94.5767C98.344 94.5767 98.4889 94.5436 98.6158 94.4773C98.7427 94.411 98.8421 94.3191 98.9141 94.2017C98.986 94.0843 99.022 93.9489 99.022 93.7955C99.022 93.6439 98.986 93.5114 98.9141 93.3977C98.8421 93.2822 98.7436 93.1922 98.6186 93.1278C98.4936 93.0616 98.3478 93.0284 98.1811 93.0284C98.0163 93.0284 97.8705 93.0616 97.7436 93.1278C97.6167 93.1922 97.5173 93.2822 97.4453 93.3977C97.3752 93.5114 97.3402 93.6439 97.3402 93.7955C97.3402 93.9489 97.3762 94.0843 97.4482 94.2017C97.5201 94.3191 97.6196 94.411 97.7464 94.4773C97.8733 94.5436 98.0182 94.5767 98.1811 94.5767ZM103.405 92.1023C103.704 92.1023 103.992 92.1525 104.268 92.2528C104.547 92.3532 104.795 92.5133 105.013 92.733C105.232 92.9527 105.406 93.2443 105.533 93.608C105.661 93.9697 105.727 94.4138 105.729 94.9403C105.729 95.4347 105.673 95.8759 105.561 96.2642C105.451 96.6506 105.293 96.9792 105.087 97.25C104.88 97.5208 104.631 97.7273 104.339 97.8693C104.048 98.0095 103.722 98.0795 103.362 98.0795C102.974 98.0795 102.631 98.0047 102.334 97.8551C102.036 97.7036 101.797 97.4981 101.615 97.2386C101.435 96.9773 101.326 96.6837 101.288 96.358H102.501C102.549 96.5701 102.648 96.7348 102.8 96.8523C102.951 96.9678 103.139 97.0256 103.362 97.0256C103.741 97.0256 104.029 96.8608 104.226 96.5312C104.423 96.1998 104.522 95.7462 104.524 95.1705H104.484C104.397 95.3409 104.28 95.4877 104.132 95.6108C103.984 95.732 103.815 95.8258 103.624 95.892C103.434 95.9583 103.232 95.9915 103.018 95.9915C102.676 95.9915 102.37 95.911 102.101 95.75C101.832 95.589 101.62 95.3674 101.464 95.0852C101.309 94.803 101.232 94.4811 101.232 94.1193C101.23 93.7292 101.32 93.3816 101.501 93.0767C101.683 92.7718 101.937 92.5331 102.263 92.3608C102.59 92.1866 102.971 92.1004 103.405 92.1023ZM103.413 93.0682C103.222 93.0682 103.052 93.1136 102.902 93.2045C102.754 93.2955 102.637 93.4176 102.55 93.571C102.464 93.7244 102.423 93.8958 102.425 94.0852C102.425 94.2765 102.466 94.4489 102.55 94.6023C102.635 94.7538 102.75 94.875 102.896 94.9659C103.044 95.0549 103.213 95.0994 103.402 95.0994C103.544 95.0994 103.676 95.0729 103.797 95.0199C103.918 94.9669 104.023 94.8939 104.112 94.8011C104.203 94.7064 104.274 94.5975 104.325 94.4744C104.376 94.3513 104.402 94.2206 104.402 94.0824C104.4 93.8987 104.357 93.7301 104.271 93.5767C104.186 93.4233 104.069 93.3002 103.919 93.2074C103.769 93.1146 103.601 93.0682 103.413 93.0682ZM110.796 92.1818H112.012V96.2386C112.012 96.6136 111.928 96.9394 111.759 97.2159C111.593 97.4924 111.361 97.7055 111.063 97.8551C110.766 98.0047 110.42 98.0795 110.026 98.0795C109.676 98.0795 109.358 98.018 109.072 97.8949C108.788 97.7699 108.562 97.5805 108.396 97.3267C108.229 97.071 108.147 96.75 108.148 96.3636H109.373C109.377 96.517 109.408 96.6487 109.467 96.7585C109.527 96.8665 109.61 96.9498 109.714 97.0085C109.82 97.0653 109.945 97.0938 110.089 97.0938C110.24 97.0938 110.368 97.0616 110.472 96.9972C110.578 96.9309 110.659 96.8343 110.714 96.7074C110.769 96.5805 110.796 96.4242 110.796 96.2386V92.1818ZM114.032 98H112.714L114.722 92.1818H116.308L118.313 98H116.995L115.538 93.5114H115.492L114.032 98ZM113.95 95.7131H117.063V96.6733H113.95V95.7131ZM123.88 92.1818V98H122.817L120.286 94.3381H120.244V98H119.013V92.1818H120.093L122.604 95.8409H122.656V92.1818H123.88ZM128.754 94.0625C128.714 93.9242 128.659 93.8021 128.587 93.696C128.515 93.5881 128.427 93.4972 128.322 93.4233C128.22 93.3475 128.103 93.2898 127.97 93.25C127.839 93.2102 127.695 93.1903 127.536 93.1903C127.238 93.1903 126.977 93.2642 126.751 93.4119C126.528 93.5597 126.354 93.7746 126.229 94.0568C126.104 94.3371 126.041 94.6799 126.041 95.0852C126.041 95.4905 126.103 95.8352 126.226 96.1193C126.349 96.4034 126.523 96.6203 126.749 96.7699C126.974 96.9176 127.24 96.9915 127.547 96.9915C127.825 96.9915 128.063 96.9422 128.26 96.8438C128.459 96.7434 128.61 96.6023 128.714 96.4205C128.821 96.2386 128.874 96.0237 128.874 95.7756L129.124 95.8125H127.624V94.8864H130.058V95.6193C130.058 96.1307 129.95 96.5701 129.734 96.9375C129.518 97.303 129.221 97.5852 128.842 97.7841C128.464 97.9811 128.03 98.0795 127.541 98.0795C126.996 98.0795 126.517 97.9593 126.104 97.7188C125.691 97.4763 125.369 97.1326 125.138 96.6875C124.909 96.2405 124.794 95.7102 124.794 95.0966C124.794 94.625 124.862 94.2045 124.999 93.8352C125.137 93.464 125.33 93.1496 125.578 92.892C125.826 92.6345 126.115 92.4384 126.445 92.304C126.774 92.1695 127.131 92.1023 127.516 92.1023C127.845 92.1023 128.152 92.1506 128.436 92.2472C128.72 92.3419 128.972 92.4763 129.192 92.6506C129.413 92.8248 129.594 93.0322 129.734 93.2727C129.875 93.5114 129.964 93.7746 130.004 94.0625H128.754ZM131.805 98H130.487L132.496 92.1818H134.081L136.087 98H134.768L133.311 93.5114H133.266L131.805 98ZM131.723 95.7131H134.837V96.6733H131.723V95.7131ZM141.653 92.1818V98H140.591L138.06 94.3381H138.017V98H136.787V92.1818H137.866L140.378 95.8409H140.429V92.1818H141.653ZM143.673 98H142.354L144.363 92.1818H145.948L147.954 98H146.636L145.178 93.5114H145.133L143.673 98ZM143.59 95.7131H146.704V96.6733H143.59V95.7131ZM153.521 92.1818V98H152.458L149.927 94.3381H149.884V98H148.654V92.1818H149.734L152.245 95.8409H152.296V92.1818H153.521ZM155.54 98H154.222L156.23 92.1818H157.815L159.821 98H158.503L157.045 93.5114H157L155.54 98ZM155.457 95.7131H158.571V96.6733H155.457V95.7131ZM61.5057 108V102.182H63.8352C64.2633 102.182 64.6203 102.245 64.9062 102.372C65.1922 102.499 65.4072 102.675 65.5511 102.901C65.6951 103.124 65.767 103.382 65.767 103.673C65.767 103.901 65.7216 104.1 65.6307 104.273C65.5398 104.443 65.4148 104.583 65.2557 104.693C65.0985 104.801 64.9186 104.878 64.7159 104.923V104.98C64.9375 104.99 65.1449 105.052 65.3381 105.168C65.5331 105.283 65.6913 105.445 65.8125 105.653C65.9337 105.86 65.9943 106.106 65.9943 106.392C65.9943 106.701 65.9176 106.976 65.7642 107.219C65.6127 107.459 65.3883 107.65 65.0909 107.79C64.7936 107.93 64.4271 108 63.9915 108H61.5057ZM62.7358 106.994H63.7386C64.0814 106.994 64.3314 106.929 64.4886 106.798C64.6458 106.666 64.7244 106.49 64.7244 106.27C64.7244 106.109 64.6856 105.967 64.608 105.844C64.5303 105.721 64.4195 105.624 64.2756 105.554C64.1335 105.484 63.964 105.449 63.767 105.449H62.7358V106.994ZM62.7358 104.616H63.6477C63.8163 104.616 63.9659 104.587 64.0966 104.528C64.2292 104.468 64.3333 104.383 64.4091 104.273C64.4867 104.163 64.5256 104.031 64.5256 103.878C64.5256 103.668 64.4508 103.498 64.3011 103.369C64.1534 103.241 63.9432 103.176 63.6705 103.176H62.7358V104.616ZM66.7947 108V102.182H68.0249V104.582H70.522V102.182H71.7493V108H70.522V105.597H68.0249V108H66.7947ZM73.7663 108H72.4482L74.4567 102.182H76.0419L78.0476 108H76.7294L75.272 103.511H75.2266L73.7663 108ZM73.6839 105.713H76.7976V106.673H73.6839V105.713ZM79.4716 108L77.8068 102.182H79.1506L80.1136 106.224H80.1619L81.2244 102.182H82.375L83.4347 106.233H83.4858L84.4489 102.182H85.7926L84.1278 108H82.929L81.821 104.196H81.7756L80.6705 108H79.4716ZM86.8679 108H85.5497L87.5582 102.182H89.1435L91.1491 108H89.831L88.3736 103.511H88.3281L86.8679 108ZM86.7855 105.713H89.8991V106.673H86.7855V105.713ZM96.7159 102.182V108H95.6534L93.1222 104.338H93.0795V108H91.8494V102.182H92.929L95.4403 105.841H95.4915V102.182H96.7159ZM99.0249 107.205L98.9936 107.517C98.969 107.767 98.9216 108.016 98.8516 108.264C98.7834 108.514 98.7114 108.741 98.6357 108.943C98.5618 109.146 98.5021 109.305 98.4567 109.42H97.6726C97.701 109.309 97.7398 109.152 97.7891 108.952C97.8383 108.753 97.8847 108.529 97.9283 108.281C97.9718 108.033 97.9993 107.78 98.0107 107.523L98.0249 107.205H99.0249ZM101.732 108V102.182H105.585V103.196H102.962V104.582H105.329V105.597H102.962V108H101.732ZM107.642 102.182V108H106.412V102.182H107.642ZM108.654 108V102.182H110.95C111.389 102.182 111.764 102.26 112.075 102.418C112.387 102.573 112.625 102.794 112.788 103.08C112.952 103.364 113.035 103.698 113.035 104.082C113.035 104.469 112.951 104.801 112.785 105.08C112.618 105.356 112.377 105.568 112.06 105.716C111.746 105.864 111.365 105.938 110.918 105.938H109.381V104.949H110.719C110.954 104.949 111.149 104.917 111.305 104.852C111.46 104.788 111.576 104.691 111.651 104.562C111.729 104.434 111.768 104.274 111.768 104.082C111.768 103.889 111.729 103.726 111.651 103.594C111.576 103.461 111.459 103.361 111.302 103.293C111.147 103.223 110.951 103.188 110.714 103.188H109.884V108H108.654ZM111.796 105.352L113.242 108H111.884L110.469 105.352H111.796ZM117.06 103.855C117.038 103.626 116.94 103.448 116.768 103.321C116.595 103.194 116.362 103.131 116.066 103.131C115.865 103.131 115.696 103.159 115.558 103.216C115.419 103.271 115.313 103.348 115.239 103.446C115.167 103.545 115.131 103.656 115.131 103.781C115.128 103.885 115.149 103.976 115.197 104.054C115.246 104.132 115.313 104.199 115.398 104.256C115.484 104.311 115.582 104.359 115.694 104.401C115.806 104.44 115.925 104.474 116.052 104.503L116.575 104.628C116.828 104.685 117.061 104.76 117.273 104.855C117.486 104.95 117.669 105.066 117.825 105.205C117.98 105.343 118.1 105.506 118.185 105.693C118.272 105.881 118.317 106.096 118.319 106.338C118.317 106.694 118.226 107.003 118.046 107.264C117.868 107.524 117.611 107.725 117.273 107.869C116.938 108.011 116.534 108.082 116.06 108.082C115.591 108.082 115.182 108.01 114.833 107.866C114.487 107.723 114.216 107.509 114.021 107.227C113.827 106.943 113.726 106.592 113.717 106.173H114.907C114.92 106.368 114.976 106.531 115.075 106.662C115.175 106.791 115.308 106.888 115.475 106.955C115.644 107.019 115.834 107.051 116.046 107.051C116.254 107.051 116.435 107.021 116.589 106.96C116.744 106.9 116.864 106.815 116.95 106.707C117.035 106.599 117.077 106.475 117.077 106.335C117.077 106.205 117.039 106.095 116.961 106.006C116.885 105.917 116.773 105.841 116.626 105.778C116.48 105.716 116.301 105.659 116.089 105.608L115.455 105.449C114.965 105.33 114.577 105.143 114.293 104.889C114.009 104.635 113.868 104.294 113.87 103.864C113.868 103.511 113.962 103.204 114.151 102.94C114.343 102.677 114.605 102.472 114.938 102.324C115.272 102.176 115.65 102.102 116.075 102.102C116.506 102.102 116.883 102.176 117.205 102.324C117.529 102.472 117.781 102.677 117.961 102.94C118.141 103.204 118.234 103.509 118.239 103.855H117.06ZM118.925 103.196V102.182H123.703V103.196H121.922V108H120.706V103.196H118.925ZM127.344 108H126.026L128.035 102.182H129.62L131.626 108H130.308L128.85 103.511H128.805L127.344 108ZM127.262 105.713H130.376V106.673H127.262V105.713ZM137.192 102.182V108H136.13L133.599 104.338H133.556V108H132.326V102.182H133.406L135.917 105.841H135.968V102.182H137.192ZM140.271 108H138.209V102.182H140.288C140.874 102.182 141.377 102.298 141.8 102.531C142.222 102.762 142.547 103.095 142.774 103.528C143.003 103.962 143.118 104.481 143.118 105.085C143.118 105.691 143.003 106.212 142.774 106.648C142.547 107.083 142.22 107.418 141.794 107.651C141.37 107.884 140.862 108 140.271 108ZM139.439 106.946H140.22C140.584 106.946 140.89 106.882 141.138 106.753C141.388 106.622 141.575 106.42 141.7 106.148C141.827 105.873 141.891 105.519 141.891 105.085C141.891 104.655 141.827 104.304 141.7 104.031C141.575 103.759 141.389 103.558 141.141 103.429C140.893 103.3 140.587 103.236 140.223 103.236H139.439V106.946ZM64.6619 113.855C64.6392 113.626 64.5417 113.448 64.3693 113.321C64.197 113.194 63.9631 113.131 63.6676 113.131C63.4669 113.131 63.2973 113.159 63.1591 113.216C63.0208 113.271 62.9148 113.348 62.8409 113.446C62.7689 113.545 62.733 113.656 62.733 113.781C62.7292 113.885 62.7509 113.976 62.7983 114.054C62.8475 114.132 62.9148 114.199 63 114.256C63.0852 114.311 63.1837 114.359 63.2955 114.401C63.4072 114.44 63.5265 114.474 63.6534 114.503L64.1761 114.628C64.4299 114.685 64.6629 114.76 64.875 114.855C65.0871 114.95 65.2708 115.066 65.4261 115.205C65.5814 115.343 65.7017 115.506 65.7869 115.693C65.8741 115.881 65.9186 116.096 65.9205 116.338C65.9186 116.694 65.8277 117.003 65.6477 117.264C65.4697 117.524 65.2121 117.725 64.875 117.869C64.5398 118.011 64.1354 118.082 63.6619 118.082C63.1922 118.082 62.7831 118.01 62.4347 117.866C62.0881 117.723 61.8172 117.509 61.6222 117.227C61.429 116.943 61.3277 116.592 61.3182 116.173H62.5085C62.5218 116.368 62.5777 116.531 62.6761 116.662C62.7765 116.791 62.91 116.888 63.0767 116.955C63.2453 117.019 63.4356 117.051 63.6477 117.051C63.8561 117.051 64.0369 117.021 64.1903 116.96C64.3456 116.9 64.4659 116.815 64.5511 116.707C64.6364 116.599 64.679 116.475 64.679 116.335C64.679 116.205 64.6402 116.095 64.5625 116.006C64.4867 115.917 64.375 115.841 64.2273 115.778C64.0814 115.716 63.9025 115.659 63.6903 115.608L63.0568 115.449C62.5663 115.33 62.179 115.143 61.8949 114.889C61.6108 114.635 61.4697 114.294 61.4716 113.864C61.4697 113.511 61.5634 113.204 61.7528 112.94C61.9441 112.677 62.2064 112.472 62.5398 112.324C62.8731 112.176 63.2519 112.102 63.6761 112.102C64.108 112.102 64.4848 112.176 64.8068 112.324C65.1307 112.472 65.3826 112.677 65.5625 112.94C65.7424 113.204 65.8352 113.509 65.8409 113.855H64.6619ZM66.7479 118V112.182H70.6683V113.196H67.978V114.582H70.4666V115.597H67.978V116.986H70.6797V118H66.7479ZM76.7798 114.219H75.5355C75.5128 114.058 75.4664 113.915 75.3963 113.79C75.3262 113.663 75.2363 113.555 75.1264 113.466C75.0166 113.377 74.8897 113.309 74.7457 113.261C74.6037 113.214 74.4493 113.19 74.2827 113.19C73.9815 113.19 73.7192 113.265 73.4957 113.415C73.2723 113.562 73.099 113.778 72.9759 114.062C72.8527 114.345 72.7912 114.687 72.7912 115.091C72.7912 115.506 72.8527 115.854 72.9759 116.136C73.1009 116.419 73.2751 116.632 73.4986 116.776C73.7221 116.92 73.9806 116.991 74.2741 116.991C74.4389 116.991 74.5914 116.97 74.7315 116.926C74.8736 116.883 74.9995 116.819 75.1094 116.736C75.2192 116.651 75.3101 116.547 75.3821 116.426C75.456 116.305 75.5071 116.167 75.5355 116.011L76.7798 116.017C76.7476 116.284 76.6671 116.542 76.5384 116.79C76.4115 117.036 76.2401 117.257 76.0241 117.452C75.8101 117.645 75.5545 117.798 75.2571 117.912C74.9616 118.024 74.6274 118.08 74.2543 118.08C73.7353 118.08 73.2713 117.962 72.8622 117.727C72.455 117.492 72.133 117.152 71.8963 116.707C71.6615 116.262 71.544 115.723 71.544 115.091C71.544 114.456 71.6634 113.917 71.902 113.472C72.1406 113.027 72.4645 112.687 72.8736 112.455C73.2827 112.22 73.7429 112.102 74.2543 112.102C74.5914 112.102 74.9039 112.15 75.1918 112.244C75.4815 112.339 75.7382 112.477 75.9616 112.659C76.1851 112.839 76.367 113.06 76.5071 113.321C76.6491 113.582 76.7401 113.882 76.7798 114.219ZM83.0085 115.091C83.0085 115.725 82.8883 116.265 82.6477 116.71C82.4091 117.155 82.0833 117.495 81.6705 117.73C81.2595 117.963 80.7973 118.08 80.2841 118.08C79.767 118.08 79.303 117.962 78.892 117.727C78.4811 117.492 78.1563 117.152 77.9176 116.707C77.679 116.262 77.5597 115.723 77.5597 115.091C77.5597 114.456 77.679 113.917 77.9176 113.472C78.1563 113.027 78.4811 112.687 78.892 112.455C79.303 112.22 79.767 112.102 80.2841 112.102C80.7973 112.102 81.2595 112.22 81.6705 112.455C82.0833 112.687 82.4091 113.027 82.6477 113.472C82.8883 113.917 83.0085 114.456 83.0085 115.091ZM81.7614 115.091C81.7614 114.68 81.6998 114.333 81.5767 114.051C81.4555 113.769 81.2841 113.555 81.0625 113.409C80.8409 113.263 80.5814 113.19 80.2841 113.19C79.9867 113.19 79.7273 113.263 79.5057 113.409C79.2841 113.555 79.1117 113.769 78.9886 114.051C78.8674 114.333 78.8068 114.68 78.8068 115.091C78.8068 115.502 78.8674 115.848 78.9886 116.131C79.1117 116.413 79.2841 116.627 79.5057 116.773C79.7273 116.919 79.9867 116.991 80.2841 116.991C80.5814 116.991 80.8409 116.919 81.0625 116.773C81.2841 116.627 81.4555 116.413 81.5767 116.131C81.6998 115.848 81.7614 115.502 81.7614 115.091ZM88.7862 112.182V118H87.7237L85.1925 114.338H85.1499V118H83.9197V112.182H84.9993L87.5107 115.841H87.5618V112.182H88.7862ZM91.8651 118H89.8026V112.182H91.8821C92.4673 112.182 92.9711 112.298 93.3935 112.531C93.8158 112.762 94.1406 113.095 94.3679 113.528C94.5971 113.962 94.7116 114.481 94.7116 115.085C94.7116 115.691 94.5971 116.212 94.3679 116.648C94.1406 117.083 93.8139 117.418 93.3878 117.651C92.9635 117.884 92.456 118 91.8651 118ZM91.0327 116.946H91.8139C92.1776 116.946 92.4834 116.882 92.7315 116.753C92.9815 116.622 93.169 116.42 93.294 116.148C93.4209 115.873 93.4844 115.519 93.4844 115.085C93.4844 114.655 93.4209 114.304 93.294 114.031C93.169 113.759 92.9825 113.558 92.7344 113.429C92.4863 113.3 92.1804 113.236 91.8168 113.236H91.0327V116.946ZM97.4744 118V112.182H101.327V113.196H98.7045V114.582H101.071V115.597H98.7045V118H97.4744ZM102.154 118V112.182H103.384V116.986H105.879V118H102.154ZM111.813 115.091C111.813 115.725 111.693 116.265 111.452 116.71C111.214 117.155 110.888 117.495 110.475 117.73C110.064 117.963 109.602 118.08 109.089 118.08C108.572 118.08 108.108 117.962 107.697 117.727C107.286 117.492 106.961 117.152 106.722 116.707C106.484 116.262 106.364 115.723 106.364 115.091C106.364 114.456 106.484 113.917 106.722 113.472C106.961 113.027 107.286 112.687 107.697 112.455C108.108 112.22 108.572 112.102 109.089 112.102C109.602 112.102 110.064 112.22 110.475 112.455C110.888 112.687 111.214 113.027 111.452 113.472C111.693 113.917 111.813 114.456 111.813 115.091ZM110.566 115.091C110.566 114.68 110.504 114.333 110.381 114.051C110.26 113.769 110.089 113.555 109.867 113.409C109.646 113.263 109.386 113.19 109.089 113.19C108.791 113.19 108.532 113.263 108.31 113.409C108.089 113.555 107.916 113.769 107.793 114.051C107.672 114.333 107.612 114.68 107.612 115.091C107.612 115.502 107.672 115.848 107.793 116.131C107.916 116.413 108.089 116.627 108.31 116.773C108.532 116.919 108.791 116.991 109.089 116.991C109.386 116.991 109.646 116.919 109.867 116.773C110.089 116.627 110.26 116.413 110.381 116.131C110.504 115.848 110.566 115.502 110.566 115.091ZM118.071 115.091C118.071 115.725 117.951 116.265 117.71 116.71C117.472 117.155 117.146 117.495 116.733 117.73C116.322 117.963 115.86 118.08 115.347 118.08C114.83 118.08 114.366 117.962 113.955 117.727C113.544 117.492 113.219 117.152 112.98 116.707C112.741 116.262 112.622 115.723 112.622 115.091C112.622 114.456 112.741 113.917 112.98 113.472C113.219 113.027 113.544 112.687 113.955 112.455C114.366 112.22 114.83 112.102 115.347 112.102C115.86 112.102 116.322 112.22 116.733 112.455C117.146 112.687 117.472 113.027 117.71 113.472C117.951 113.917 118.071 114.456 118.071 115.091ZM116.824 115.091C116.824 114.68 116.762 114.333 116.639 114.051C116.518 113.769 116.347 113.555 116.125 113.409C115.903 113.263 115.644 113.19 115.347 113.19C115.049 113.19 114.79 113.263 114.568 113.409C114.347 113.555 114.174 113.769 114.051 114.051C113.93 114.333 113.869 114.68 113.869 115.091C113.869 115.502 113.93 115.848 114.051 116.131C114.174 116.413 114.347 116.627 114.568 116.773C114.79 116.919 115.049 116.991 115.347 116.991C115.644 116.991 115.903 116.919 116.125 116.773C116.347 116.627 116.518 116.413 116.639 116.131C116.762 115.848 116.824 115.502 116.824 115.091ZM118.982 118V112.182H121.278C121.717 112.182 122.092 112.26 122.403 112.418C122.715 112.573 122.953 112.794 123.116 113.08C123.281 113.364 123.363 113.698 123.363 114.082C123.363 114.469 123.28 114.801 123.113 115.08C122.946 115.356 122.705 115.568 122.388 115.716C122.074 115.864 121.693 115.938 121.246 115.938H119.71V114.949H121.048C121.282 114.949 121.478 114.917 121.633 114.852C121.788 114.788 121.904 114.691 121.979 114.562C122.057 114.434 122.096 114.274 122.096 114.082C122.096 113.889 122.057 113.726 121.979 113.594C121.904 113.461 121.787 113.361 121.63 113.293C121.475 113.223 121.279 113.188 121.042 113.188H120.212V118H118.982ZM122.124 115.352L123.57 118H122.212L120.798 115.352H122.124ZM125.525 117.205L125.494 117.517C125.469 117.767 125.422 118.016 125.352 118.264C125.283 118.514 125.211 118.741 125.136 118.943C125.062 119.146 125.002 119.305 124.957 119.42H124.173C124.201 119.309 124.24 119.152 124.289 118.952C124.338 118.753 124.385 118.529 124.428 118.281C124.472 118.033 124.499 117.78 124.511 117.523L124.525 117.205H125.525ZM128.232 118V112.182H130.528C130.969 112.182 131.345 112.266 131.656 112.435C131.966 112.601 132.203 112.833 132.366 113.131C132.531 113.426 132.613 113.767 132.613 114.153C132.613 114.54 132.53 114.881 132.363 115.176C132.196 115.472 131.955 115.702 131.638 115.866C131.324 116.031 130.943 116.114 130.496 116.114H129.033V115.128H130.298C130.534 115.128 130.729 115.087 130.883 115.006C131.038 114.922 131.154 114.808 131.229 114.662C131.307 114.514 131.346 114.345 131.346 114.153C131.346 113.96 131.307 113.792 131.229 113.648C131.154 113.502 131.038 113.389 130.883 113.31C130.728 113.228 130.531 113.188 130.292 113.188H129.462V118H128.232ZM133.412 118V112.182H134.642V116.986H137.136V118H133.412ZM143.071 115.091C143.071 115.725 142.951 116.265 142.71 116.71C142.472 117.155 142.146 117.495 141.733 117.73C141.322 117.963 140.86 118.08 140.347 118.08C139.83 118.08 139.366 117.962 138.955 117.727C138.544 117.492 138.219 117.152 137.98 116.707C137.741 116.262 137.622 115.723 137.622 115.091C137.622 114.456 137.741 113.917 137.98 113.472C138.219 113.027 138.544 112.687 138.955 112.455C139.366 112.22 139.83 112.102 140.347 112.102C140.86 112.102 141.322 112.22 141.733 112.455C142.146 112.687 142.472 113.027 142.71 113.472C142.951 113.917 143.071 114.456 143.071 115.091ZM141.824 115.091C141.824 114.68 141.762 114.333 141.639 114.051C141.518 113.769 141.347 113.555 141.125 113.409C140.903 113.263 140.644 113.19 140.347 113.19C140.049 113.19 139.79 113.263 139.568 113.409C139.347 113.555 139.174 113.769 139.051 114.051C138.93 114.333 138.869 114.68 138.869 115.091C138.869 115.502 138.93 115.848 139.051 116.131C139.174 116.413 139.347 116.627 139.568 116.773C139.79 116.919 140.049 116.991 140.347 116.991C140.644 116.991 140.903 116.919 141.125 116.773C141.347 116.627 141.518 116.413 141.639 116.131C141.762 115.848 141.824 115.502 141.824 115.091ZM143.495 113.196V112.182H148.273V113.196H146.492V118H145.276V113.196H143.495ZM66.3722 122.182V128H65.3097L62.7784 124.338H62.7358V128H61.5057V122.182H62.5852L65.0966 125.841H65.1477V122.182H66.3722ZM72.7351 125.091C72.7351 125.725 72.6148 126.265 72.3743 126.71C72.1357 127.155 71.8099 127.495 71.397 127.73C70.986 127.963 70.5239 128.08 70.0107 128.08C69.4936 128.08 69.0296 127.962 68.6186 127.727C68.2076 127.492 67.8828 127.152 67.6442 126.707C67.4055 126.262 67.2862 125.723 67.2862 125.091C67.2862 124.456 67.4055 123.917 67.6442 123.472C67.8828 123.027 68.2076 122.687 68.6186 122.455C69.0296 122.22 69.4936 122.102 70.0107 122.102C70.5239 122.102 70.986 122.22 71.397 122.455C71.8099 122.687 72.1357 123.027 72.3743 123.472C72.6148 123.917 72.7351 124.456 72.7351 125.091ZM71.4879 125.091C71.4879 124.68 71.4264 124.333 71.3033 124.051C71.1821 123.769 71.0107 123.555 70.7891 123.409C70.5675 123.263 70.308 123.19 70.0107 123.19C69.7133 123.19 69.4538 123.263 69.2322 123.409C69.0107 123.555 68.8383 123.769 68.7152 124.051C68.594 124.333 68.5334 124.68 68.5334 125.091C68.5334 125.502 68.594 125.848 68.7152 126.131C68.8383 126.413 69.0107 126.627 69.2322 126.773C69.4538 126.919 69.7133 126.991 70.0107 126.991C70.308 126.991 70.5675 126.919 70.7891 126.773C71.0107 126.627 71.1821 126.413 71.3033 126.131C71.4264 125.848 71.4879 125.502 71.4879 125.091ZM73.9638 128.074C73.7763 128.074 73.6153 128.008 73.4808 127.875C73.3482 127.741 73.282 127.58 73.282 127.392C73.282 127.206 73.3482 127.047 73.4808 126.915C73.6153 126.782 73.7763 126.716 73.9638 126.716C74.1456 126.716 74.3047 126.782 74.4411 126.915C74.5774 127.047 74.6456 127.206 74.6456 127.392C74.6456 127.517 74.6134 127.632 74.549 127.736C74.4865 127.838 74.4041 127.92 74.3018 127.983C74.1996 128.044 74.0869 128.074 73.9638 128.074ZM77.206 128V127.114L79.277 125.196C79.4531 125.026 79.6009 124.872 79.7202 124.736C79.8414 124.599 79.9332 124.466 79.9957 124.335C80.0582 124.203 80.0895 124.06 80.0895 123.906C80.0895 123.736 80.0507 123.589 79.973 123.466C79.8954 123.341 79.7893 123.245 79.6548 123.179C79.5204 123.111 79.3679 123.077 79.1974 123.077C79.0194 123.077 78.8641 123.113 78.7315 123.185C78.599 123.257 78.4967 123.36 78.4247 123.494C78.3527 123.629 78.3168 123.789 78.3168 123.974H77.1491C77.1491 123.594 77.2353 123.263 77.4077 122.983C77.58 122.703 77.8215 122.486 78.1321 122.332C78.4427 122.179 78.8007 122.102 79.206 122.102C79.6226 122.102 79.9853 122.176 80.294 122.324C80.6046 122.47 80.8461 122.672 81.0185 122.932C81.1908 123.191 81.277 123.489 81.277 123.824C81.277 124.044 81.2334 124.26 81.1463 124.474C81.0611 124.688 80.9086 124.926 80.6889 125.188C80.4692 125.447 80.1596 125.759 79.7599 126.122L78.9105 126.955V126.994H81.3537V128H77.206ZM82.2791 128V122.182H84.6087C85.0367 122.182 85.3937 122.245 85.6797 122.372C85.9657 122.499 86.1806 122.675 86.3246 122.901C86.4685 123.124 86.5405 123.382 86.5405 123.673C86.5405 123.901 86.495 124.1 86.4041 124.273C86.3132 124.443 86.1882 124.583 86.0291 124.693C85.8719 124.801 85.692 124.878 85.4893 124.923V124.98C85.7109 124.99 85.9183 125.052 86.1115 125.168C86.3066 125.283 86.4647 125.445 86.5859 125.653C86.7071 125.86 86.7678 126.106 86.7678 126.392C86.7678 126.701 86.6911 126.976 86.5376 127.219C86.3861 127.459 86.1617 127.65 85.8643 127.79C85.567 127.93 85.2005 128 84.7649 128H82.2791ZM83.5092 126.994H84.5121C84.8549 126.994 85.1049 126.929 85.2621 126.798C85.4193 126.666 85.4979 126.49 85.4979 126.27C85.4979 126.109 85.459 125.967 85.3814 125.844C85.3037 125.721 85.1929 125.624 85.049 125.554C84.907 125.484 84.7375 125.449 84.5405 125.449H83.5092V126.994ZM83.5092 124.616H84.4212C84.5897 124.616 84.7393 124.587 84.87 124.528C85.0026 124.468 85.1068 124.383 85.1825 124.273C85.2602 124.163 85.299 124.031 85.299 123.878C85.299 123.668 85.2242 123.498 85.0746 123.369C84.9268 123.241 84.7166 123.176 84.4439 123.176H83.5092V124.616ZM88.8608 127.205L88.8295 127.517C88.8049 127.767 88.7576 128.016 88.6875 128.264C88.6193 128.514 88.5473 128.741 88.4716 128.943C88.3977 129.146 88.3381 129.305 88.2926 129.42H87.5085C87.5369 129.309 87.5758 129.152 87.625 128.952C87.6742 128.753 87.7206 128.529 87.7642 128.281C87.8078 128.033 87.8352 127.78 87.8466 127.523L87.8608 127.205H88.8608ZM91.5682 122.182H93.0852L94.6875 126.091H94.7557L96.358 122.182H97.875V128H96.6818V124.213H96.6335L95.1278 127.972H94.3153L92.8097 124.199H92.7614V128H91.5682V122.182ZM99.8913 128H98.5732L100.582 122.182H102.167L104.173 128H102.854L101.397 123.511H101.352L99.8913 128ZM99.8089 125.713H102.923V126.673H99.8089V125.713ZM106.935 128H104.873V122.182H106.952C107.538 122.182 108.041 122.298 108.464 122.531C108.886 122.762 109.211 123.095 109.438 123.528C109.667 123.962 109.782 124.481 109.782 125.085C109.782 125.691 109.667 126.212 109.438 126.648C109.211 127.083 108.884 127.418 108.458 127.651C108.034 127.884 107.526 128 106.935 128ZM106.103 126.946H106.884C107.248 126.946 107.554 126.882 107.802 126.753C108.052 126.622 108.239 126.42 108.364 126.148C108.491 125.873 108.555 125.519 108.555 125.085C108.555 124.655 108.491 124.304 108.364 124.031C108.239 123.759 108.053 123.558 107.805 123.429C107.557 123.3 107.251 123.236 106.887 123.236H106.103V126.946ZM110.693 128V122.182H111.923V124.582H114.42V122.182H115.648V128H114.42V125.597H111.923V128H110.693ZM116.321 122.182H117.699L119.026 124.688H119.082L120.409 122.182H121.787L119.665 125.943V128H118.443V125.943L116.321 122.182ZM122.868 128H121.55L123.558 122.182H125.143L127.149 128H125.831L124.374 123.511H124.328L122.868 128ZM122.786 125.713H125.899V126.673H122.786V125.713ZM129.701 122.182H131.218L132.82 126.091H132.888L134.491 122.182H136.008V128H134.815V124.213H134.766L133.261 127.972H132.448L130.942 124.199H130.894V128H129.701V122.182ZM138.024 128H136.706L138.714 122.182H140.3L142.305 128H140.987L139.53 123.511H139.484L138.024 128ZM137.942 125.713H141.055V126.673H137.942V125.713ZM143.006 128V122.182H145.301C145.741 122.182 146.116 122.26 146.426 122.418C146.739 122.573 146.976 122.794 147.139 123.08C147.304 123.364 147.386 123.698 147.386 124.082C147.386 124.469 147.303 124.801 147.136 125.08C146.97 125.356 146.728 125.568 146.412 125.716C146.098 125.864 145.717 125.938 145.27 125.938H143.733V124.949H145.071C145.306 124.949 145.501 124.917 145.656 124.852C145.812 124.788 145.927 124.691 146.003 124.562C146.08 124.434 146.119 124.274 146.119 124.082C146.119 123.889 146.08 123.726 146.003 123.594C145.927 123.461 145.811 123.361 145.653 123.293C145.498 123.223 145.302 123.188 145.065 123.188H144.236V128H143.006ZM146.148 125.352L147.594 128H146.236L144.821 125.352H146.148ZM152.114 124.062C152.074 123.924 152.018 123.802 151.946 123.696C151.874 123.588 151.786 123.497 151.682 123.423C151.58 123.348 151.462 123.29 151.33 123.25C151.199 123.21 151.054 123.19 150.895 123.19C150.598 123.19 150.336 123.264 150.111 123.412C149.887 123.56 149.713 123.775 149.588 124.057C149.463 124.337 149.401 124.68 149.401 125.085C149.401 125.491 149.462 125.835 149.585 126.119C149.708 126.403 149.883 126.62 150.108 126.77C150.333 126.918 150.599 126.991 150.906 126.991C151.185 126.991 151.422 126.942 151.619 126.844C151.818 126.743 151.97 126.602 152.074 126.42C152.18 126.239 152.233 126.024 152.233 125.776L152.483 125.812H150.983V124.886H153.418V125.619C153.418 126.131 153.31 126.57 153.094 126.938C152.878 127.303 152.58 127.585 152.202 127.784C151.823 127.981 151.389 128.08 150.901 128.08C150.355 128.08 149.876 127.959 149.463 127.719C149.05 127.476 148.728 127.133 148.497 126.688C148.268 126.241 148.153 125.71 148.153 125.097C148.153 124.625 148.222 124.205 148.358 123.835C148.496 123.464 148.689 123.15 148.938 122.892C149.186 122.634 149.474 122.438 149.804 122.304C150.134 122.17 150.491 122.102 150.875 122.102C151.205 122.102 151.511 122.151 151.795 122.247C152.08 122.342 152.331 122.476 152.551 122.651C152.773 122.825 152.954 123.032 153.094 123.273C153.234 123.511 153.324 123.775 153.364 124.062H152.114ZM155.634 127.205L155.603 127.517C155.578 127.767 155.531 128.016 155.461 128.264C155.393 128.514 155.321 128.741 155.245 128.943C155.171 129.146 155.112 129.305 155.066 129.42H154.282C154.31 129.309 154.349 129.152 154.398 128.952C154.448 128.753 154.494 128.529 154.538 128.281C154.581 128.033 154.609 127.78 154.62 127.523L154.634 127.205H155.634ZM64.6619 133.855C64.6392 133.626 64.5417 133.448 64.3693 133.321C64.197 133.194 63.9631 133.131 63.6676 133.131C63.4669 133.131 63.2973 133.159 63.1591 133.216C63.0208 133.271 62.9148 133.348 62.8409 133.446C62.7689 133.545 62.733 133.656 62.733 133.781C62.7292 133.885 62.7509 133.976 62.7983 134.054C62.8475 134.132 62.9148 134.199 63 134.256C63.0852 134.311 63.1837 134.359 63.2955 134.401C63.4072 134.44 63.5265 134.474 63.6534 134.503L64.1761 134.628C64.4299 134.685 64.6629 134.76 64.875 134.855C65.0871 134.95 65.2708 135.066 65.4261 135.205C65.5814 135.343 65.7017 135.506 65.7869 135.693C65.8741 135.881 65.9186 136.096 65.9205 136.338C65.9186 136.694 65.8277 137.003 65.6477 137.264C65.4697 137.524 65.2121 137.725 64.875 137.869C64.5398 138.011 64.1354 138.082 63.6619 138.082C63.1922 138.082 62.7831 138.01 62.4347 137.866C62.0881 137.723 61.8172 137.509 61.6222 137.227C61.429 136.943 61.3277 136.592 61.3182 136.173H62.5085C62.5218 136.368 62.5777 136.531 62.6761 136.662C62.7765 136.791 62.91 136.888 63.0767 136.955C63.2453 137.019 63.4356 137.051 63.6477 137.051C63.8561 137.051 64.0369 137.021 64.1903 136.96C64.3456 136.9 64.4659 136.815 64.5511 136.707C64.6364 136.599 64.679 136.475 64.679 136.335C64.679 136.205 64.6402 136.095 64.5625 136.006C64.4867 135.917 64.375 135.841 64.2273 135.778C64.0814 135.716 63.9025 135.659 63.6903 135.608L63.0568 135.449C62.5663 135.33 62.179 135.143 61.8949 134.889C61.6108 134.635 61.4697 134.294 61.4716 133.864C61.4697 133.511 61.5634 133.204 61.7528 132.94C61.9441 132.677 62.2064 132.472 62.5398 132.324C62.8731 132.176 63.2519 132.102 63.6761 132.102C64.108 132.102 64.4848 132.176 64.8068 132.324C65.1307 132.472 65.3826 132.677 65.5625 132.94C65.7424 133.204 65.8352 133.509 65.8409 133.855H64.6619ZM66.7479 138V132.182H70.6683V133.196H67.978V134.582H70.4666V135.597H67.978V136.986H70.6797V138H66.7479ZM76.7798 134.219H75.5355C75.5128 134.058 75.4664 133.915 75.3963 133.79C75.3262 133.663 75.2363 133.555 75.1264 133.466C75.0166 133.377 74.8897 133.309 74.7457 133.261C74.6037 133.214 74.4493 133.19 74.2827 133.19C73.9815 133.19 73.7192 133.265 73.4957 133.415C73.2723 133.562 73.099 133.778 72.9759 134.062C72.8527 134.345 72.7912 134.687 72.7912 135.091C72.7912 135.506 72.8527 135.854 72.9759 136.136C73.1009 136.419 73.2751 136.632 73.4986 136.776C73.7221 136.92 73.9806 136.991 74.2741 136.991C74.4389 136.991 74.5914 136.97 74.7315 136.926C74.8736 136.883 74.9995 136.819 75.1094 136.736C75.2192 136.651 75.3101 136.547 75.3821 136.426C75.456 136.305 75.5071 136.167 75.5355 136.011L76.7798 136.017C76.7476 136.284 76.6671 136.542 76.5384 136.79C76.4115 137.036 76.2401 137.257 76.0241 137.452C75.8101 137.645 75.5545 137.798 75.2571 137.912C74.9616 138.024 74.6274 138.08 74.2543 138.08C73.7353 138.08 73.2713 137.962 72.8622 137.727C72.455 137.492 72.133 137.152 71.8963 136.707C71.6615 136.262 71.544 135.723 71.544 135.091C71.544 134.456 71.6634 133.917 71.902 133.472C72.1406 133.027 72.4645 132.687 72.8736 132.455C73.2827 132.22 73.7429 132.102 74.2543 132.102C74.5914 132.102 74.9039 132.15 75.1918 132.244C75.4815 132.339 75.7382 132.477 75.9616 132.659C76.1851 132.839 76.367 133.06 76.5071 133.321C76.6491 133.582 76.7401 133.882 76.7798 134.219ZM77.4403 133.196V132.182H82.2188V133.196H80.4375V138H79.2216V133.196H77.4403ZM88.0866 135.091C88.0866 135.725 87.9664 136.265 87.7259 136.71C87.4872 137.155 87.1615 137.495 86.7486 137.73C86.3376 137.963 85.8755 138.08 85.3622 138.08C84.8452 138.08 84.3812 137.962 83.9702 137.727C83.5592 137.492 83.2344 137.152 82.9957 136.707C82.7571 136.262 82.6378 135.723 82.6378 135.091C82.6378 134.456 82.7571 133.917 82.9957 133.472C83.2344 133.027 83.5592 132.687 83.9702 132.455C84.3812 132.22 84.8452 132.102 85.3622 132.102C85.8755 132.102 86.3376 132.22 86.7486 132.455C87.1615 132.687 87.4872 133.027 87.7259 133.472C87.9664 133.917 88.0866 134.456 88.0866 135.091ZM86.8395 135.091C86.8395 134.68 86.7779 134.333 86.6548 134.051C86.5336 133.769 86.3622 133.555 86.1406 133.409C85.919 133.263 85.6596 133.19 85.3622 133.19C85.0649 133.19 84.8054 133.263 84.5838 133.409C84.3622 133.555 84.1899 133.769 84.0668 134.051C83.9455 134.333 83.8849 134.68 83.8849 135.091C83.8849 135.502 83.9455 135.848 84.0668 136.131C84.1899 136.413 84.3622 136.627 84.5838 136.773C84.8054 136.919 85.0649 136.991 85.3622 136.991C85.6596 136.991 85.919 136.919 86.1406 136.773C86.3622 136.627 86.5336 136.413 86.6548 136.131C86.7779 135.848 86.8395 135.502 86.8395 135.091ZM88.9979 138V132.182H91.2933C91.7327 132.182 92.1077 132.26 92.4183 132.418C92.7308 132.573 92.9685 132.794 93.1314 133.08C93.2962 133.364 93.3786 133.698 93.3786 134.082C93.3786 134.469 93.2952 134.801 93.1286 135.08C92.9619 135.356 92.7204 135.568 92.4041 135.716C92.0897 135.864 91.709 135.938 91.2621 135.938H89.7251V134.949H91.0632C91.2981 134.949 91.4931 134.917 91.6484 134.852C91.8037 134.788 91.9193 134.691 91.995 134.562C92.0727 134.434 92.1115 134.274 92.1115 134.082C92.1115 133.889 92.0727 133.726 91.995 133.594C91.9193 133.461 91.8028 133.361 91.6456 133.293C91.4903 133.223 91.2943 133.188 91.0575 133.188H90.228V138H88.9979ZM92.1399 135.352L93.5859 138H92.228L90.8132 135.352H92.1399ZM96.9439 134.611V135.571H94.2905V134.611H96.9439ZM100.495 132.182V138H99.2649V133.349H99.2308L97.8984 134.185V133.094L99.3388 132.182H100.495ZM103.983 132.102C104.282 132.102 104.57 132.152 104.847 132.253C105.125 132.353 105.373 132.513 105.591 132.733C105.811 132.953 105.984 133.244 106.111 133.608C106.24 133.97 106.305 134.414 106.307 134.94C106.307 135.435 106.251 135.876 106.139 136.264C106.029 136.651 105.871 136.979 105.665 137.25C105.458 137.521 105.209 137.727 104.918 137.869C104.626 138.009 104.3 138.08 103.94 138.08C103.552 138.08 103.209 138.005 102.912 137.855C102.615 137.704 102.375 137.498 102.193 137.239C102.013 136.977 101.904 136.684 101.866 136.358H103.08C103.127 136.57 103.226 136.735 103.378 136.852C103.529 136.968 103.717 137.026 103.94 137.026C104.319 137.026 104.607 136.861 104.804 136.531C105.001 136.2 105.1 135.746 105.102 135.17H105.062C104.975 135.341 104.858 135.488 104.71 135.611C104.563 135.732 104.393 135.826 104.202 135.892C104.012 135.958 103.811 135.991 103.597 135.991C103.254 135.991 102.948 135.911 102.679 135.75C102.41 135.589 102.198 135.367 102.043 135.085C101.887 134.803 101.81 134.481 101.81 134.119C101.808 133.729 101.898 133.382 102.08 133.077C102.261 132.772 102.515 132.533 102.841 132.361C103.169 132.187 103.549 132.1 103.983 132.102ZM103.991 133.068C103.8 133.068 103.63 133.114 103.48 133.205C103.332 133.295 103.215 133.418 103.128 133.571C103.043 133.724 103.001 133.896 103.003 134.085C103.003 134.277 103.045 134.449 103.128 134.602C103.213 134.754 103.329 134.875 103.474 134.966C103.622 135.055 103.791 135.099 103.98 135.099C104.122 135.099 104.254 135.073 104.375 135.02C104.496 134.967 104.601 134.894 104.69 134.801C104.781 134.706 104.852 134.598 104.903 134.474C104.955 134.351 104.98 134.221 104.98 134.082C104.978 133.899 104.935 133.73 104.849 133.577C104.764 133.423 104.647 133.3 104.497 133.207C104.348 133.115 104.179 133.068 103.991 133.068ZM108.196 138H106.878L108.886 132.182H110.472L112.477 138H111.159L109.702 133.511H109.656L108.196 138ZM108.114 135.713H111.227V136.673H108.114V135.713ZM115.029 138V132.182H117.325C117.766 132.182 118.142 132.266 118.452 132.435C118.763 132.601 119 132.833 119.163 133.131C119.327 133.426 119.41 133.767 119.41 134.153C119.41 134.54 119.326 134.881 119.16 135.176C118.993 135.472 118.752 135.702 118.435 135.866C118.121 136.031 117.74 136.114 117.293 136.114H115.83V135.128H117.094C117.331 135.128 117.526 135.087 117.68 135.006C117.835 134.922 117.951 134.808 118.026 134.662C118.104 134.514 118.143 134.345 118.143 134.153C118.143 133.96 118.104 133.792 118.026 133.648C117.951 133.502 117.835 133.389 117.68 133.31C117.524 133.228 117.327 133.188 117.089 133.188H116.259V138H115.029ZM123.803 132.182H125.033V135.96C125.033 136.384 124.931 136.756 124.729 137.074C124.528 137.392 124.247 137.64 123.885 137.818C123.523 137.994 123.102 138.082 122.621 138.082C122.138 138.082 121.715 137.994 121.354 137.818C120.992 137.64 120.711 137.392 120.51 137.074C120.309 136.756 120.209 136.384 120.209 135.96V132.182H121.439V135.855C121.439 136.077 121.487 136.274 121.584 136.446C121.682 136.618 121.821 136.754 121.999 136.852C122.177 136.951 122.384 137 122.621 137C122.859 137 123.067 136.951 123.243 136.852C123.421 136.754 123.558 136.618 123.655 136.446C123.753 136.274 123.803 136.077 123.803 135.855V132.182ZM130.911 132.182V138H129.849L127.317 134.338H127.275V138H126.045V132.182H127.124L129.636 135.841H129.687V132.182H130.911ZM134.257 132.182H135.473V136.239C135.473 136.614 135.389 136.939 135.22 137.216C135.054 137.492 134.821 137.705 134.524 137.855C134.227 138.005 133.881 138.08 133.487 138.08C133.137 138.08 132.819 138.018 132.533 137.895C132.249 137.77 132.023 137.58 131.857 137.327C131.69 137.071 131.607 136.75 131.609 136.364H132.834C132.838 136.517 132.869 136.649 132.928 136.759C132.988 136.866 133.071 136.95 133.175 137.009C133.281 137.065 133.406 137.094 133.55 137.094C133.701 137.094 133.829 137.062 133.933 136.997C134.039 136.931 134.12 136.834 134.175 136.707C134.23 136.58 134.257 136.424 134.257 136.239V132.182ZM137.493 138H136.175L138.183 132.182H139.768L141.774 138H140.456L138.999 133.511H138.953L137.493 138ZM137.411 135.713H140.524V136.673H137.411V135.713ZM142.474 138V132.182H144.804C145.232 132.182 145.589 132.245 145.875 132.372C146.161 132.499 146.376 132.675 146.52 132.901C146.664 133.124 146.736 133.382 146.736 133.673C146.736 133.901 146.69 134.1 146.599 134.273C146.509 134.443 146.384 134.583 146.224 134.693C146.067 134.801 145.887 134.878 145.685 134.923V134.98C145.906 134.99 146.114 135.052 146.307 135.168C146.502 135.283 146.66 135.445 146.781 135.653C146.902 135.86 146.963 136.106 146.963 136.392C146.963 136.701 146.886 136.976 146.733 137.219C146.581 137.459 146.357 137.65 146.06 137.79C145.762 137.93 145.396 138 144.96 138H142.474ZM143.705 136.994H144.707C145.05 136.994 145.3 136.929 145.457 136.798C145.615 136.666 145.693 136.49 145.693 136.27C145.693 136.109 145.654 135.967 145.577 135.844C145.499 135.721 145.388 135.624 145.244 135.554C145.102 135.484 144.933 135.449 144.736 135.449H143.705V136.994ZM143.705 134.616H144.616C144.785 134.616 144.935 134.587 145.065 134.528C145.198 134.468 145.302 134.383 145.378 134.273C145.455 134.163 145.494 134.031 145.494 133.878C145.494 133.668 145.42 133.498 145.27 133.369C145.122 133.241 144.912 133.176 144.639 133.176H143.705V134.616ZM66.6392 144.219H65.3949C65.3722 144.058 65.3258 143.915 65.2557 143.79C65.1856 143.663 65.0956 143.555 64.9858 143.466C64.8759 143.377 64.7491 143.309 64.6051 143.261C64.4631 143.214 64.3087 143.19 64.142 143.19C63.8409 143.19 63.5786 143.265 63.3551 143.415C63.1316 143.562 62.9583 143.778 62.8352 144.062C62.7121 144.345 62.6506 144.687 62.6506 145.091C62.6506 145.506 62.7121 145.854 62.8352 146.136C62.9602 146.419 63.1345 146.632 63.358 146.776C63.5814 146.92 63.84 146.991 64.1335 146.991C64.2983 146.991 64.4508 146.97 64.5909 146.926C64.733 146.883 64.8589 146.819 64.9688 146.736C65.0786 146.651 65.1695 146.547 65.2415 146.426C65.3153 146.305 65.3665 146.167 65.3949 146.011L66.6392 146.017C66.607 146.284 66.5265 146.542 66.3977 146.79C66.2708 147.036 66.0994 147.257 65.8835 147.452C65.6695 147.645 65.4138 147.798 65.1165 147.912C64.821 148.024 64.4867 148.08 64.1136 148.08C63.5947 148.08 63.1307 147.962 62.7216 147.727C62.3144 147.492 61.9924 147.152 61.7557 146.707C61.5208 146.262 61.4034 145.723 61.4034 145.091C61.4034 144.456 61.5227 143.917 61.7614 143.472C62 143.027 62.3239 142.687 62.733 142.455C63.142 142.22 63.6023 142.102 64.1136 142.102C64.4508 142.102 64.7633 142.15 65.0511 142.244C65.3409 142.339 65.5975 142.477 65.821 142.659C66.0445 142.839 66.2263 143.06 66.3665 143.321C66.5085 143.582 66.5994 143.882 66.6392 144.219ZM67.5213 148V142.182H68.7514V144.582H71.2486V142.182H72.4759V148H71.2486V145.597H68.7514V148H67.5213ZM74.4929 148H73.1747L75.1832 142.182H76.7685L78.7741 148H77.456L75.9986 143.511H75.9531L74.4929 148ZM74.4105 145.713H77.5241V146.673H74.4105V145.713ZM84.3409 142.182V148H83.2784L80.7472 144.338H80.7045V148H79.4744V142.182H80.554L83.0653 145.841H83.1165V142.182H84.3409ZM87.4197 148H85.3572V142.182H87.4368C88.022 142.182 88.5258 142.298 88.9482 142.531C89.3705 142.762 89.6953 143.095 89.9226 143.528C90.1518 143.962 90.2663 144.481 90.2663 145.085C90.2663 145.691 90.1518 146.212 89.9226 146.648C89.6953 147.083 89.3686 147.418 88.9425 147.651C88.5182 147.884 88.0107 148 87.4197 148ZM86.5874 146.946H87.3686C87.7322 146.946 88.0381 146.882 88.2862 146.753C88.5362 146.622 88.7237 146.42 88.8487 146.148C88.9756 145.873 89.0391 145.519 89.0391 145.085C89.0391 144.655 88.9756 144.304 88.8487 144.031C88.7237 143.759 88.5372 143.558 88.2891 143.429C88.041 143.3 87.7351 143.236 87.3714 143.236H86.5874V146.946ZM92.4077 142.182V148H91.1776V142.182H92.4077ZM97.2777 144.062C97.2379 143.924 97.1821 143.802 97.1101 143.696C97.0381 143.588 96.95 143.497 96.8459 143.423C96.7436 143.348 96.6262 143.29 96.4936 143.25C96.3629 143.21 96.218 143.19 96.0589 143.19C95.7616 143.19 95.5002 143.264 95.2749 143.412C95.0514 143.56 94.8771 143.775 94.7521 144.057C94.6271 144.337 94.5646 144.68 94.5646 145.085C94.5646 145.491 94.6262 145.835 94.7493 146.119C94.8724 146.403 95.0466 146.62 95.272 146.77C95.4974 146.918 95.7635 146.991 96.0703 146.991C96.3487 146.991 96.5864 146.942 96.7834 146.844C96.9822 146.743 97.1338 146.602 97.2379 146.42C97.344 146.239 97.397 146.024 97.397 145.776L97.647 145.812H96.147V144.886H98.5817V145.619C98.5817 146.131 98.4737 146.57 98.2578 146.938C98.0419 147.303 97.7446 147.585 97.3658 147.784C96.987 147.981 96.5533 148.08 96.0646 148.08C95.5192 148.08 95.04 147.959 94.6271 147.719C94.2143 147.476 93.8923 147.133 93.6612 146.688C93.4321 146.241 93.3175 145.71 93.3175 145.097C93.3175 144.625 93.3857 144.205 93.522 143.835C93.6603 143.464 93.8535 143.15 94.1016 142.892C94.3497 142.634 94.6385 142.438 94.968 142.304C95.2976 142.17 95.6546 142.102 96.0391 142.102C96.3686 142.102 96.6754 142.151 96.9595 142.247C97.2436 142.342 97.4955 142.476 97.7152 142.651C97.9368 142.825 98.1177 143.032 98.2578 143.273C98.398 143.511 98.4879 143.775 98.5277 144.062H97.2777ZM100.329 148H99.0107L101.019 142.182H102.604L104.61 148H103.292L101.835 143.511H101.789L100.329 148ZM100.246 145.713H103.36V146.673H100.246V145.713ZM105.31 148V142.182H107.606C108.045 142.182 108.42 142.26 108.731 142.418C109.043 142.573 109.281 142.794 109.444 143.08C109.609 143.364 109.691 143.698 109.691 144.082C109.691 144.469 109.608 144.801 109.441 145.08C109.274 145.356 109.033 145.568 108.717 145.716C108.402 145.864 108.022 145.938 107.575 145.938H106.038V144.949H107.376C107.611 144.949 107.806 144.917 107.961 144.852C108.116 144.788 108.232 144.691 108.308 144.562C108.385 144.434 108.424 144.274 108.424 144.082C108.424 143.889 108.385 143.726 108.308 143.594C108.232 143.461 108.115 143.361 107.958 143.293C107.803 143.223 107.607 143.188 107.37 143.188H106.54V148H105.31ZM108.452 145.352L109.898 148H108.54L107.126 145.352H108.452ZM110.56 148V142.182H111.79V144.582H114.288V142.182H115.515V148H114.288V145.597H111.79V148H110.56ZM117.822 147.205L117.79 147.517C117.766 147.767 117.719 148.016 117.648 148.264C117.58 148.514 117.508 148.741 117.433 148.943C117.359 149.146 117.299 149.305 117.254 149.42H116.469C116.498 149.309 116.537 149.152 116.586 148.952C116.635 148.753 116.682 148.529 116.725 148.281C116.769 148.033 116.796 147.78 116.808 147.523L116.822 147.205H117.822ZM123.026 142.182V148H121.796V143.349H121.762L120.43 144.185V143.094L121.87 142.182H123.026ZM126.642 148.08C126.343 148.078 126.054 148.027 125.776 147.929C125.499 147.83 125.251 147.67 125.031 147.449C124.812 147.227 124.637 146.934 124.509 146.568C124.382 146.203 124.318 145.754 124.318 145.222C124.32 144.733 124.376 144.296 124.486 143.912C124.598 143.526 124.757 143.198 124.963 142.929C125.171 142.66 125.42 142.455 125.71 142.315C126 142.173 126.325 142.102 126.685 142.102C127.073 142.102 127.416 142.178 127.713 142.33C128.01 142.479 128.249 142.683 128.429 142.94C128.611 143.198 128.721 143.487 128.759 143.807H127.545C127.498 143.604 127.399 143.445 127.247 143.33C127.096 143.214 126.908 143.156 126.685 143.156C126.306 143.156 126.018 143.321 125.821 143.651C125.626 143.98 125.527 144.428 125.523 144.994H125.562C125.65 144.822 125.767 144.675 125.915 144.554C126.064 144.431 126.234 144.337 126.423 144.273C126.615 144.206 126.816 144.173 127.028 144.173C127.373 144.173 127.68 144.255 127.949 144.418C128.218 144.579 128.43 144.8 128.585 145.082C128.741 145.365 128.818 145.687 128.818 146.051C128.818 146.445 128.726 146.795 128.543 147.102C128.361 147.409 128.106 147.65 127.778 147.824C127.453 147.996 127.074 148.081 126.642 148.08ZM126.636 147.114C126.826 147.114 126.995 147.068 127.145 146.977C127.295 146.886 127.412 146.763 127.497 146.608C127.582 146.453 127.625 146.278 127.625 146.085C127.625 145.892 127.582 145.719 127.497 145.565C127.414 145.412 127.298 145.29 127.151 145.199C127.003 145.108 126.834 145.062 126.645 145.062C126.503 145.062 126.371 145.089 126.25 145.142C126.131 145.195 126.026 145.269 125.935 145.364C125.846 145.458 125.776 145.568 125.724 145.693C125.673 145.816 125.648 145.948 125.648 146.088C125.648 146.276 125.69 146.447 125.776 146.602C125.863 146.758 125.98 146.882 126.128 146.974C126.277 147.067 126.447 147.114 126.636 147.114ZM131.972 148.128C131.483 148.126 131.063 148.006 130.71 147.767C130.36 147.528 130.09 147.183 129.901 146.73C129.713 146.277 129.62 145.733 129.622 145.097C129.622 144.462 129.716 143.921 129.903 143.474C130.093 143.027 130.363 142.687 130.713 142.455C131.065 142.22 131.485 142.102 131.972 142.102C132.458 142.102 132.877 142.22 133.227 142.455C133.58 142.689 133.85 143.03 134.04 143.477C134.229 143.922 134.323 144.462 134.321 145.097C134.321 145.735 134.226 146.28 134.037 146.733C133.849 147.186 133.58 147.531 133.23 147.77C132.88 148.009 132.46 148.128 131.972 148.128ZM131.972 147.108C132.305 147.108 132.571 146.94 132.77 146.605C132.969 146.27 133.067 145.767 133.065 145.097C133.065 144.655 133.02 144.288 132.929 143.994C132.84 143.701 132.713 143.48 132.548 143.332C132.385 143.185 132.193 143.111 131.972 143.111C131.64 143.111 131.375 143.277 131.176 143.608C130.977 143.939 130.877 144.436 130.875 145.097C130.875 145.544 130.92 145.917 131.009 146.216C131.099 146.513 131.227 146.737 131.392 146.886C131.557 147.034 131.75 147.108 131.972 147.108ZM137.479 148.128C136.991 148.126 136.57 148.006 136.218 147.767C135.868 147.528 135.598 147.183 135.408 146.73C135.221 146.277 135.128 145.733 135.13 145.097C135.13 144.462 135.224 143.921 135.411 143.474C135.601 143.027 135.871 142.687 136.221 142.455C136.573 142.22 136.993 142.102 137.479 142.102C137.966 142.102 138.385 142.22 138.735 142.455C139.087 142.689 139.358 143.03 139.548 143.477C139.737 143.922 139.831 144.462 139.829 145.097C139.829 145.735 139.734 146.28 139.545 146.733C139.357 147.186 139.088 147.531 138.738 147.77C138.388 148.009 137.968 148.128 137.479 148.128ZM137.479 147.108C137.813 147.108 138.079 146.94 138.278 146.605C138.477 146.27 138.575 145.767 138.573 145.097C138.573 144.655 138.528 144.288 138.437 143.994C138.348 143.701 138.221 143.48 138.056 143.332C137.893 143.185 137.701 143.111 137.479 143.111C137.148 143.111 136.883 143.277 136.684 143.608C136.485 143.939 136.385 144.436 136.383 145.097C136.383 145.544 136.427 145.917 136.516 146.216C136.607 146.513 136.735 146.737 136.9 146.886C137.065 147.034 137.258 147.108 137.479 147.108ZM143.237 142.182V148H142.007V143.349H141.973L140.641 144.185V143.094L142.081 142.182H143.237ZM146.725 142.102C147.024 142.102 147.312 142.152 147.589 142.253C147.867 142.353 148.115 142.513 148.333 142.733C148.553 142.953 148.726 143.244 148.853 143.608C148.982 143.97 149.047 144.414 149.049 144.94C149.049 145.435 148.993 145.876 148.881 146.264C148.772 146.651 148.613 146.979 148.407 147.25C148.201 147.521 147.951 147.727 147.66 147.869C147.368 148.009 147.042 148.08 146.683 148.08C146.294 148.08 145.951 148.005 145.654 147.855C145.357 147.704 145.117 147.498 144.935 147.239C144.755 146.977 144.647 146.684 144.609 146.358H145.822C145.869 146.57 145.969 146.735 146.12 146.852C146.272 146.968 146.459 147.026 146.683 147.026C147.061 147.026 147.349 146.861 147.546 146.531C147.743 146.2 147.843 145.746 147.844 145.17H147.805C147.718 145.341 147.6 145.488 147.452 145.611C147.305 145.732 147.135 145.826 146.944 145.892C146.754 145.958 146.553 145.991 146.339 145.991C145.996 145.991 145.69 145.911 145.421 145.75C145.152 145.589 144.94 145.367 144.785 145.085C144.629 144.803 144.552 144.481 144.552 144.119C144.55 143.729 144.64 143.382 144.822 143.077C145.004 142.772 145.257 142.533 145.583 142.361C145.911 142.187 146.291 142.1 146.725 142.102ZM146.734 143.068C146.542 143.068 146.372 143.114 146.222 143.205C146.075 143.295 145.957 143.418 145.87 143.571C145.785 143.724 145.743 143.896 145.745 144.085C145.745 144.277 145.787 144.449 145.87 144.602C145.955 144.754 146.071 144.875 146.217 144.966C146.364 145.055 146.533 145.099 146.722 145.099C146.864 145.099 146.996 145.073 147.117 145.02C147.238 144.967 147.344 144.894 147.433 144.801C147.523 144.706 147.594 144.598 147.646 144.474C147.697 144.351 147.722 144.221 147.722 144.082C147.72 143.899 147.677 143.73 147.592 143.577C147.506 143.423 147.389 143.3 147.239 143.207C147.09 143.115 146.921 143.068 146.734 143.068ZM150.386 148.074C150.198 148.074 150.037 148.008 149.903 147.875C149.77 147.741 149.704 147.58 149.704 147.392C149.704 147.206 149.77 147.047 149.903 146.915C150.037 146.782 150.198 146.716 150.386 146.716C150.567 146.716 150.727 146.782 150.863 146.915C150.999 147.047 151.067 147.206 151.067 147.392C151.067 147.517 151.035 147.632 150.971 147.736C150.908 147.838 150.826 147.92 150.724 147.983C150.621 148.044 150.509 148.074 150.386 148.074Z" fill="#7A3D89"/>
<defs>
<filter id="filter0_d_29_2" x="8.13647" y="11.5384" width="204" height="209" filterUnits="userSpaceOnUse" color-interpolation-filters="sRGB">
<feFlood flood-opacity="0" result="BackgroundImageFix"/>
<feColorMatrix in="SourceAlpha" type="matrix" values="0 0 0 0 0 0 0 0 0 0 0 0 0 0 0 0 0 0 127 0" result="hardAlpha"/>
<feOffset dy="4"/>
<feGaussianBlur stdDeviation="2"/>
<feComposite in2="hardAlpha" operator="out"/>
<feColorMatrix type="matrix" values="0 0 0 0 0 0 0 0 0 0 0 0 0 0 0 0 0 0 0.25 0"/>
<feBlend mode="normal" in2="BackgroundImageFix" result="effect1_dropShadow_29_2"/>
<feBlend mode="normal" in="SourceGraphic" in2="effect1_dropShadow_29_2" result="shape"/>
</filter>
</defs>
</svg>
